<svg width="473" height="300" viewBox="0 0 473 300" fill="none" xmlns="http://www.w3.org/2000/svg">
<path d="M212 0.599989C210.6 0.799989 205.2 1.69999 200 2.59999C141.8 12.3 83.1 50.7 24.6 117.3C18 124.9 9.90001 134.6 6.80001 138.8C-1.79999 150.2 -1.69999 150.8 12.5 168.2C29.4 189 56.1 216.6 75 233.1C100.8 255.5 131 274.6 157 284.8C184.4 295.7 200 299 227 299.7C264.2 300.7 291.4 294.5 327.7 277C367.1 258 406.5 227.3 444.9 185.7C453.6 176.2 463 165.8 465.7 162.5C476.2 149.9 476.1 149.3 460.1 131.1C401.7 64.8 345.4 24.1 289.5 7.79999C270.7 2.29999 260.4 0.899989 236.5 0.499989C224.4 0.299989 213.4 0.399989 212 0.599989ZM262 53.3C285 59.3 306.4 74.4 319.7 94C333.7 114.7 339.9 143.5 335.4 167.1C322.8 233.6 251.9 269.1 191.9 238.9C149.1 217.4 127.3 166.2 141.7 120.6C153 84.7 182.6 58.5 220 51.5C231.3 49.3 250.1 50.2 262 53.3Z" fill="#0075FE"/>
<path d="M223.6 95.6C207.7 99.4 193.5 110.8 186.7 125.1C176 147.6 180.1 172 197.3 189.5C219.2 211.5 254.6 211.6 276.4 189.6C291 174.9 296.2 155.8 291.1 135.8C288.5 125.5 283.9 117.8 275.9 109.9C262.5 96.5 242.4 91 223.6 95.6Z" fill="#0075FE"/>
</svg>
