<svg width="324" height="329" viewBox="0 0 324 329" fill="none" xmlns="http://www.w3.org/2000/svg">
<path d="M120 1.8C114.8 4.4 112 9.2 112 15.8C112 22.1 114.4 26.6 119.5 29.7C122.3 31.3 125.7 31.5 161.3 31.8C198 32.1 200.2 32 204.5 30.1C216.8 24.7 216.7 6.7 204.3 1.4C201.7 0.300005 193 4.95483e-06 162.3 4.95483e-06C127.8 0.100005 123.1 0.300005 120 1.8Z" fill="#0075FE"/>
<path d="M8.8 59C3.2 62 0.599998 66.4 0.599998 72.7C0.599998 78.6 2.5 82 8 85.7C11.1 87.8 12.4 88 26.6 88H41.9L42.4 92.2C42.7 94.6 46.6 143.4 50.9 200.8C58.5 299.9 59 305.4 61.3 310.4C66 320.5 73 326 84.3 328.1C87.9 328.7 115.8 329 162.7 328.8C234.6 328.5 235.6 328.5 240.1 326.4C249.3 322.1 256.9 312.9 258.4 303.9C259 300.5 275 94.6 275 90.3V88H293.5C313.8 88 315.6 87.6 320.3 82.1C326.6 74.5 323.5 62.3 314.3 58.4C311.6 57.2 286.1 57 161.8 57C16.1 57.1 12.4 57.1 8.8 59ZM134.3 137L137.1 140.1L136.8 193.6L136.5 247.2L133.7 249.6C129.9 252.8 125.1 252.8 121.1 249.4L118 246.8V193.3C118 158.7 118.4 139.2 119 138C120.6 135.1 125.1 132.9 128.5 133.5C130.2 133.8 132.7 135.4 134.3 137ZM197.3 137L200 140V192.1C200 236.5 199.8 244.5 198.5 247C195.5 252.7 189 253.7 184 249.2L180.9 246.5L181 193.2C181 159.3 181.4 139.1 182 137.9C183.6 135.1 188.1 132.9 191.5 133.5C193.2 133.8 195.7 135.4 197.3 137Z" fill="#0075FE"/>
</svg>
